<?xml version="1.0" encoding="UTF-8" standalone="no"?>
<svg
   xmlns:dc="http://purl.org/dc/elements/1.1/"
   xmlns:cc="http://creativecommons.org/ns#"
   xmlns:rdf="http://www.w3.org/1999/02/22-rdf-syntax-ns#"
   xmlns:svg="http://www.w3.org/2000/svg"
   xmlns="http://www.w3.org/2000/svg"
   id="svg5624"
   version="1.1"
   viewBox="0 0 200 45"
   height="45mm"
   width="200mm">
  <defs
     id="defs5618">
    <clipPath
       transform="translate(0 0)"
       id="clip-path-4">
      <rect
         id="rect5327"
         style="fill:none"
         height="113.03"
         width="704.58002"
         y="64.230003"
         x="255.19" />
    </clipPath>
    <clipPath
       transform="translate(0 0)"
       id="clipPath5607">
      <rect
         id="rect5605"
         style="fill:none"
         height="113.03"
         width="704.58002"
         y="64.230003"
         x="255.19" />
    </clipPath>
  </defs>
  <metadata
     id="metadata5621">
    <rdf:RDF>
      <cc:Work
         rdf:about="">
        <dc:format>image/svg+xml</dc:format>
        <dc:type
           rdf:resource="http://purl.org/dc/dcmitype/StillImage" />
        <dc:title></dc:title>
      </cc:Work>
    </rdf:RDF>
  </metadata>
  <g
     transform="translate(0,-252)"
     id="layer1">
    <g
       transform="matrix(0.26458333,0,0,0.26458333,-61.699323,242.37432)"
       id="g5360"
       clip-path="url(#clip-path-4)">
      <g
         id="g5358"
         clip-path="url(#clip-path-4)">
        <path
           id="path5344"
           style="fill:none;stroke:#00001e;stroke-width:1.5;stroke-miterlimit:4;stroke-dasharray:none;stroke-dashoffset:0;stroke-opacity:1"
           d="m 255.19,120.36 c 0,-33.39 25.3,-56.16 57.88,-56.13 23.94,0 37.77,13.07 45.41,26.6 l -19.88,9.75 C 334,91.78 324.29,84.76 313,84.75 c -19.71,0 -34.06,15.11 -34.08,35.63 -0.02,20.52 14.29,35.68 34,35.71 a 29.13,29.13 0 0 0 25.59,-15.77 l 19.86,9.63 c -7.83,13.51 -21.53,26.69 -45.47,26.66 -32.57,0 -57.8,-22.87 -57.76,-56.25" />
        <path
           id="path5346"
           style="fill:none;stroke:#00001e;stroke-width:1.5;stroke-miterlimit:4;stroke-dasharray:none;stroke-opacity:1"
           d="m 366.73,135.3 c 0,-22.31 15.68,-41.19 41.58,-41.16 26.06,0 41.67,18.94 41.65,41.25 0,22.48 -15.68,41.35 -41.74,41.32 -25.9,0 -41.51,-18.94 -41.49,-41.41 m 61.73,0.07 c 0,-12.22 -7.31,-22.81 -20.17,-22.82 -12.86,-0.01 -20,10.56 -20.06,22.78 0,12.38 7.14,23 20,23 12.86,0 20.21,-10.56 20.22,-22.94" />
        <path
           id="path5348"
           style="fill:none;stroke:#00001e;stroke-width:1.5;stroke-miterlimit:4;stroke-dasharray:none;stroke-opacity:1"
           d="m 519.29,174.88 v -10.1 a 30.54,30.54 0 0 1 -24.28,12 c -19.87,0 -34.84,-15 -34.81,-41.24 0,-25.73 14.87,-41.35 34.9,-41.33 a 30.3,30.3 0 0 1 24.25,12.08 V 66.22 h 20.85 l -0.12,108.64 z m 0,-25.41 v -27.85 c -3.42,-5.22 -10.9,-9 -17.9,-9 -11.73,0 -19.88,9.26 -19.9,22.94 0,13.52 8.12,22.81 19.85,22.83 7,0 14.5,-3.73 17.93,-8.94" />
        <path
           id="path5350"
           style="fill:none;stroke:#00001e;stroke-width:1.5;stroke-miterlimit:4;stroke-dasharray:none;stroke-opacity:1"
           d="m 555.64,135.5 c 0,-22.8 16.82,-41.19 40.76,-41.16 23.45,0 39.4,17.63 39.37,43.37 v 4.56 l -58.47,-0.06 c 1.29,9.94 9.26,18.25 22.62,18.27 6.68,0 16,-2.92 21,-7.79 L 630,166 c -7.83,7.16 -20.21,10.89 -32.43,10.88 -23.94,0 -42,-16.17 -42,-41.41 m 40.74,-24.71 c -12.87,0 -18.42,9.59 -19.4,17.41 h 38.76 c -0.48,-7.49 -5.68,-17.43 -19.36,-17.45" />
        <path
           id="path5352"
           style="fill:none;stroke:#00001e;stroke-width:1.5;stroke-miterlimit:4;stroke-dasharray:none;stroke-opacity:1"
           d="M 692.89,175.07 693,66.43 l 50.82,0.06 c 23.61,0 36.46,16 36.44,35.06 0,18.89 -13.07,35 -36.52,35 h -27.69 v 38.6 z m 63.77,-73.55 c 0,-9.12 -6.83,-14.67 -15.95,-14.68 h -24.59 v 29.32 h 24.59 c 9.12,0 16,-5.68 16,-14.64" />
        <path
           id="path5354"
           style="fill:none;stroke:#00001e;stroke-width:1.5;stroke-miterlimit:4;stroke-dasharray:none;stroke-opacity:1"
           d="m 786.25,135.75 c 0,-22.32 15.68,-41.19 41.58,-41.16 26.06,0 41.67,18.94 41.65,41.25 0,22.48 -15.68,41.35 -41.74,41.33 -25.9,0 -41.51,-18.94 -41.49,-41.41 m 61.73,0.07 C 848,123.6 840.67,113 827.8,113 c -12.87,0 -20,10.56 -20.06,22.78 0,12.38 7.14,23 20,23 12.86,0 20.26,-10.59 20.26,-22.96" />
        <path
           id="path5356"
           style="fill:none;fill-opacity:1;stroke:#00001e;stroke-width:1.5;stroke-miterlimit:4;stroke-dasharray:none;stroke-opacity:1"
           d="m 938.81,175.33 v -10.1 a 30.53,30.53 0 0 1 -24.28,12 c -19.87,0 -34.84,-15 -34.81,-41.24 0,-25.73 14.87,-41.35 34.9,-41.33 a 30.29,30.29 0 0 1 24.25,12.08 V 66.67 h 20.85 l -0.12,108.64 z m 0,-25.41 v -27.85 c -3.41,-5.22 -10.9,-9 -17.91,-9 -11.73,0 -19.88,9.26 -19.89,22.94 0,13.52 8.12,22.81 19.85,22.82 7,0 14.5,-3.73 17.93,-8.94" />
      </g>
    </g>
  </g>
</svg>
